<?xml version="1.0" encoding="UTF-8"?>
<svg width="24px" height="24px" viewBox="0 0 24 24" version="1.1" xmlns="http://www.w3.org/2000/svg" xmlns:xlink="http://www.w3.org/1999/xlink">
    <title>icon/profile</title>
    <g id="icon/profile" stroke="none" stroke-width="1" fill="none" fill-rule="evenodd">
        <path d="M15.4511278,11.35 C17.8569337,11.35 19.65,13.774611 19.65,16.6666667 L19.65,19 C19.65,19.3589851 19.3152234,19.65 18.9022556,19.65 C18.4892878,19.65 18.1545113,19.3589851 18.1545113,19 L18.1545113,16.6666667 C18.1545113,14.4040647 16.8573324,12.65 15.4511278,12.65 L8.54887218,12.65 C7.14266758,12.65 5.84548872,14.4040647 5.84548872,16.6666667 L5.84548872,19 C5.84548872,19.3589851 5.51071217,19.65 5.09774436,19.65 C4.68477655,19.65 4.35,19.3589851 4.35,19 L4.35,16.6666667 C4.35,13.774611 6.14306625,11.35 8.54887218,11.35 L15.4511278,11.35 Z" id="Path" fill="#B2B2B2" fill-rule="nonzero"></path>
        <path d="M12,3.35 C14.2989195,3.35 16.15,5.28922714 16.15,7.66666667 C16.15,10.0441062 14.2989195,11.9833333 12,11.9833333 C9.70108045,11.9833333 7.85,10.0441062 7.85,7.66666667 C7.85,5.28922714 9.70108045,3.35 12,3.35 Z M12,4.65 C10.4329263,4.65 9.15,5.99401803 9.15,7.66666667 C9.15,9.33931531 10.4329263,10.6833333 12,10.6833333 C13.5670737,10.6833333 14.85,9.33931531 14.85,7.66666667 C14.85,5.99401803 13.5670737,4.65 12,4.65 Z" id="Oval" fill="#B2B2B2" fill-rule="nonzero"></path>
        <polygon id="Path-3" fill="#B2B2B2" fill-rule="nonzero" points="5 19.65 19 19.65 19 18.35 5 18.35"></polygon>
    </g>
</svg>