<?xml version="1.0" encoding="UTF-8"?>
<svg width="65px" height="65px" viewBox="0 0 65 65" version="1.1" xmlns="http://www.w3.org/2000/svg" xmlns:xlink="http://www.w3.org/1999/xlink">
    <title>icon/spiked-circle/black/65px</title>
    <g id="icons" stroke="none" stroke-width="1" fill="none" fill-rule="evenodd">
        <g id="icon/spiked-circle/black/65px" stroke="#000000" stroke-width="1.3">
            <path d="M32.5,5.54220321 L34.5465594,22.8716952 L43.4647238,7.87282719 L38.2858094,24.5365166 L52.5335472,14.4617131 L41.0246404,27.5782966 L58.1383883,24.1695827 L42.2894836,31.4710838 L59.3101192,35.3178571 L41.8616362,35.54178 L55.8461369,45.9788984 L39.8150768,39.0865248 L48.3453954,54.3093157 L36.5036742,41.4923996 L38.1048411,58.8687043 L32.5,42.3434068 L26.8951589,58.8687043 L28.4963258,41.4923996 L16.6546046,54.3093157 L25.1849232,39.0865248 L9.15386315,45.9788984 L23.1383638,35.54178 L5.68988084,35.3178571 L22.7105164,31.4710838 L6.86161169,24.1695827 L23.9753596,27.5782966 L12.4664528,14.4617131 L26.7141906,24.5365166 L21.5352762,7.87282719 L30.4534406,22.8716952 L32.5,5.54220321 Z" id="Star"></path>
        </g>
    </g>
</svg>